<?xml version="1.0" standalone="no"?>
<!DOCTYPE svg PUBLIC "-//W3C//DTD SVG 20010904//EN"
 "http://www.w3.org/TR/2001/REC-SVG-20010904/DTD/svg10.dtd">
<svg version="1.0" xmlns="http://www.w3.org/2000/svg"
 width="300.000000pt" height="300.000000pt" viewBox="0 0 300.000000 300.000000"
 preserveAspectRatio="xMidYMid meet">

<g transform="translate(0.000000,300.000000) scale(0.100000,-0.100000)"
fill="#000000" stroke="none">
<path d="M479 1718 c-73 -80 -150 -234 -136 -272 15 -39 84 8 122 84 23 45 65
179 65 207 0 22 -20 14 -51 -19z m-69 -208 c13 -9 10 -14 -15 -36 -31 -28 -41
-21 -31 21 7 27 21 31 46 15z"/>
<path d="M1295 1690 c-41 -16 -49 -39 -53 -146 -5 -124 2 -167 30 -194 47 -43
133 -3 126 58 -4 31 -21 36 -26 7 -2 -11 -9 -26 -14 -32 -15 -18 -65 -16 -72
3 -12 30 -7 249 6 262 25 25 58 14 74 -23 15 -36 34 -39 34 -5 0 32 -11 50
-41 65 -31 17 -36 17 -64 5z"/>
<path d="M834 1677 c-2 -7 -3 -86 -2 -177 2 -120 6 -164 16 -168 9 -3 12 15
12 67 l0 71 55 0 55 0 0 -71 c0 -52 3 -70 13 -67 9 4 13 51 15 181 2 153 0
177 -13 177 -12 0 -15 -16 -15 -91 l0 -90 -52 3 -53 3 -3 88 c-3 79 -14 110
-28 74z"/>
<path d="M1081 1528 c-40 -203 -39 -193 -21 -193 9 0 17 12 20 30 5 27 9 30
46 33 40 3 42 2 48 -32 4 -22 13 -36 21 -36 19 0 20 -8 -15 166 -40 198 -38
194 -54 194 -9 0 -23 -49 -45 -162z m59 0 c6 -29 13 -63 16 -75 5 -20 2 -23
-25 -23 -23 0 -31 4 -31 18 0 22 21 132 26 132 1 0 7 -24 14 -52z"/>
<path d="M1467 1684 c-9 -9 -9 -338 0 -347 15 -16 33 18 33 64 0 45 16 99 29
99 4 0 23 -34 44 -75 34 -68 59 -97 73 -82 3 3 -15 46 -40 96 -25 50 -46 96
-46 102 0 6 16 37 35 69 38 62 43 80 21 80 -7 0 -35 -36 -62 -81 l-49 -81 -5
78 c-5 71 -15 96 -33 78z"/>
<path d="M1702 1514 c3 -175 3 -179 25 -182 41 -6 99 17 111 43 7 15 12 76 12
144 0 147 -8 162 -94 169 l-56 5 2 -179z m106 134 c8 -8 12 -53 12 -134 0
-138 -8 -157 -64 -152 l-31 3 -3 148 -3 147 39 0 c21 0 43 -5 50 -12z"/>
<path d="M1917 1684 c-4 -4 -7 -83 -7 -175 0 -192 -5 -184 95 -177 75 5 71 28
-4 28 l-61 0 0 60 0 60 44 0 c61 0 68 18 9 22 l-48 3 -3 77 -3 77 63 3 c35 2
63 8 63 13 0 11 -137 20 -148 9z"/>
<path d="M2147 1678 c-50 -39 -37 -112 31 -163 72 -56 91 -105 53 -139 -36
-33 -79 -16 -96 38 -9 29 -29 3 -21 -28 8 -33 59 -60 95 -51 42 11 61 34 61
76 0 53 -15 79 -66 117 -56 42 -72 72 -56 108 10 21 18 25 45 22 26 -2 34 -9
42 -35 12 -41 25 -43 25 -3 0 56 -68 91 -113 58z"/>
<path d="M2346 1683 c-3 -3 -6 -82 -6 -175 0 -143 2 -168 15 -168 13 0 15 25
15 169 0 154 -5 192 -24 174z"/>
<path d="M2471 1664 c-19 -24 -21 -40 -21 -156 0 -124 1 -130 25 -153 13 -14
36 -25 50 -25 14 0 37 11 50 25 22 21 25 33 25 90 l0 66 -37 -3 c-42 -3 -48
-20 -11 -28 49 -12 26 -120 -25 -120 -42 0 -47 16 -47 151 0 120 1 129 22 143
26 19 55 6 68 -30 11 -27 30 -33 30 -8 0 19 -19 56 -34 66 -26 18 -75 8 -95
-18z"/>
<path d="M2670 1516 c0 -148 2 -176 15 -176 12 0 15 23 17 128 l3 127 54 -127
c32 -76 60 -128 68 -128 11 0 13 31 11 170 -4 202 -21 231 -28 48 l-5 -123
-18 40 c-10 22 -34 78 -55 124 -57 129 -62 122 -62 -83z"/>
<path d="M127 1552 c-31 -32 -57 -62 -57 -68 0 -19 118 -127 130 -119 8 5 -6
26 -44 64 l-56 57 55 54 c30 30 55 58 55 62 0 21 -31 3 -83 -50z"/>
<path d="M555 1600 c-5 -7 13 -32 46 -66 l53 -54 -54 -55 c-36 -36 -51 -58
-44 -65 6 -6 31 12 74 55 l65 65 -66 66 c-45 45 -69 62 -74 54z"/>
<path d="M298 1419 c-10 -5 -20 -26 -23 -47 -11 -61 -15 -71 -37 -77 -35 -12
-4 -26 40 -19 58 9 92 43 92 92 0 56 -29 77 -72 51z"/>
</g>
</svg>
